<svg width="21" height="20" viewBox="0 0 21 20" fill="none" xmlns="http://www.w3.org/2000/svg">
<path d="M9.45 7H11.55V5H9.45M10.5 18C5.8695 18 2.1 14.41 2.1 10C2.1 5.59 5.8695 2 10.5 2C15.1305 2 18.9 5.59 18.9 10C18.9 14.41 15.1305 18 10.5 18ZM10.5 0C9.12112 0 7.75574 0.258658 6.48182 0.761205C5.2079 1.26375 4.05039 2.00035 3.07538 2.92893C1.10625 4.8043 0 7.34784 0 10C0 12.6522 1.10625 15.1957 3.07538 17.0711C4.05039 17.9997 5.2079 18.7362 6.48182 19.2388C7.75574 19.7413 9.12112 20 10.5 20C13.2848 20 15.9555 18.9464 17.9246 17.0711C19.8938 15.1957 21 12.6522 21 10C21 8.68678 20.7284 7.38642 20.2007 6.17317C19.6731 4.95991 18.8996 3.85752 17.9246 2.92893C16.9496 2.00035 15.7921 1.26375 14.5182 0.761205C13.2443 0.258658 11.8789 0 10.5 0ZM9.45 15H11.55V9H9.45V15Z" fill="#69B9DA"/>
</svg>
