<svg width="135" height="90" viewBox="0 0 135 90" fill="none" xmlns="http://www.w3.org/2000/svg">
<path d="M67.5 18.75C64.9219 18.9844 62.3438 19.2188 60 19.9219C61.1719 21.7969 61.6406 24.1406 61.875 26.25C61.875 33.5156 55.7812 39.375 48.75 39.375C46.4062 39.375 44.0625 38.9062 42.4219 37.7344C41.7188 40.0781 41.25 42.4219 41.25 45C41.25 59.5312 52.9688 71.25 67.5 71.25C82.0312 71.25 93.75 59.5312 93.75 45C93.75 30.7031 82.0312 18.9844 67.5 18.9844V18.75ZM134.062 41.7188C121.406 16.875 96.0938 0 67.5 0C38.6719 0 13.3594 16.875 0.703125 41.7188C0.234375 42.6562 0 43.8281 0 45C0 46.4062 0.234375 47.5781 0.703125 48.5156C13.3594 73.3594 38.6719 90 67.5 90C96.0938 90 121.406 73.3594 134.062 48.5156C134.531 47.5781 134.766 46.4062 134.766 45.2344C134.766 43.8281 134.531 42.6562 134.062 41.7188ZM67.5 78.75C44.2969 78.75 22.9688 65.8594 11.7188 45C22.9688 24.1406 44.2969 11.25 67.5 11.25C90.4688 11.25 111.797 24.1406 123.047 45C111.797 65.8594 90.4688 78.75 67.5 78.75Z" fill="black"/>
</svg>
