<svg width="20" height="19" viewBox="0 0 20 19" fill="none" xmlns="http://www.w3.org/2000/svg">
<path d="M9.68426 14.81C10.4311 14.81 11.1132 14.7328 11.7353 14.5993L10.3482 13.2815C10.1327 13.2973 9.914 13.31 9.68426 13.31C5.45979 13.31 3.82321 10.4255 3.42689 9.56C3.72448 8.92911 4.1264 8.34751 4.61742 7.83725L3.51374 6.78875C2.29952 8.039 1.83926 9.29825 1.83058 9.323C1.77612 9.47703 1.77612 9.64373 1.83058 9.79775C1.84716 9.84725 3.65821 14.81 9.68426 14.81ZM9.68426 4.31C8.234 4.31 7.04268 4.607 6.04952 5.04575L3.13716 2.27975L2.02084 3.34025L16.2314 16.8403L17.3477 15.7798L14.7274 13.2905C16.7911 11.8273 17.5277 9.82925 17.5387 9.79775C17.5932 9.64373 17.5932 9.47703 17.5387 9.323C17.5214 9.27275 15.7103 4.31 9.68426 4.31ZM13.6095 12.2285L11.8095 10.5185C11.9595 10.226 12.0527 9.90425 12.0527 9.56C12.0527 8.32925 10.9798 7.31 9.68426 7.31C9.32189 7.31 8.98321 7.3985 8.6761 7.54175L7.24874 6.18575C8.0323 5.93031 8.85587 5.80325 9.68426 5.81C13.9087 5.81 15.5453 8.6945 15.9416 9.56C15.7032 10.079 15.0211 11.3165 13.6095 12.2285Z" fill="#545454"/>
</svg>
