<svg width="25" height="25" viewBox="0 0 25 25" fill="none" xmlns="http://www.w3.org/2000/svg">
<path d="M12.4375 20C12.875 20 13.245 19.8487 13.5475 19.5462C13.85 19.2437 14.0008 18.8742 14 18.4375C14 18 13.8492 17.63 13.5475 17.3275C13.2458 17.025 12.8758 16.8742 12.4375 16.875C12 16.875 11.6304 17.0263 11.3287 17.3288C11.0271 17.6313 10.8758 18.0008 10.875 18.4375C10.875 18.875 11.0262 19.245 11.3287 19.5475C11.6312 19.85 12.0008 20.0008 12.4375 20ZM11.3125 15.1875H13.625C13.625 14.5 13.7033 13.9583 13.86 13.5625C14.0167 13.1667 14.4592 12.625 15.1875 11.9375C15.7292 11.3958 16.1562 10.88 16.4688 10.39C16.7812 9.9 16.9375 9.31167 16.9375 8.625C16.9375 7.45833 16.5104 6.5625 15.6562 5.9375C14.8021 5.3125 13.7917 5 12.625 5C11.4375 5 10.4742 5.3125 9.735 5.9375C8.99583 6.5625 8.48 7.3125 8.1875 8.1875L10.25 9C10.3542 8.625 10.5887 8.21875 10.9537 7.78125C11.3187 7.34375 11.8758 7.125 12.625 7.125C13.2917 7.125 13.7917 7.3075 14.125 7.6725C14.4583 8.0375 14.625 8.43833 14.625 8.875C14.625 9.29167 14.5 9.6825 14.25 10.0475C14 10.4125 13.6875 10.7508 13.3125 11.0625C12.3958 11.875 11.8333 12.4896 11.625 12.9062C11.4167 13.3229 11.3125 14.0833 11.3125 15.1875ZM12.5 25C10.7708 25 9.14583 24.6721 7.625 24.0162C6.10417 23.3604 4.78125 22.4696 3.65625 21.3438C2.53125 20.2188 1.64083 18.8958 0.985 17.375C0.329167 15.8542 0.000833333 14.2292 0 12.5C0 10.7708 0.328333 9.14583 0.985 7.625C1.64167 6.10417 2.53208 4.78125 3.65625 3.65625C4.78125 2.53125 6.10417 1.64083 7.625 0.985C9.14583 0.329167 10.7708 0.000833333 12.5 0C14.2292 0 15.8542 0.328333 17.375 0.985C18.8958 1.64167 20.2188 2.53208 21.3438 3.65625C22.4688 4.78125 23.3596 6.10417 24.0162 7.625C24.6729 9.14583 25.0008 10.7708 25 12.5C25 14.2292 24.6717 15.8542 24.015 17.375C23.3583 18.8958 22.4679 20.2188 21.3438 21.3438C20.2188 22.4688 18.8958 23.3596 17.375 24.0162C15.8542 24.6729 14.2292 25.0008 12.5 25ZM12.5 22.5C15.2917 22.5 17.6562 21.5312 19.5938 19.5938C21.5312 17.6562 22.5 15.2917 22.5 12.5C22.5 9.70833 21.5312 7.34375 19.5938 5.40625C17.6562 3.46875 15.2917 2.5 12.5 2.5C9.70833 2.5 7.34375 3.46875 5.40625 5.40625C3.46875 7.34375 2.5 9.70833 2.5 12.5C2.5 15.2917 3.46875 17.6562 5.40625 19.5938C7.34375 21.5312 9.70833 22.5 12.5 22.5Z" fill="#69B9DA"/>
</svg>
