<svg width="31" height="31" viewBox="0 0 31 31" fill="none" xmlns="http://www.w3.org/2000/svg">
<path d="M9.25817 21.9983L11.8263 21.2575L27.289 5.60956C27.411 5.48458 27.4789 5.31663 27.4781 5.142C27.4772 4.96737 27.4078 4.80007 27.2846 4.67623L26.3586 3.73998C26.2987 3.67849 26.2273 3.62954 26.1483 3.59598C26.0693 3.56242 25.9845 3.54493 25.8987 3.54452C25.8129 3.54411 25.7279 3.5608 25.6486 3.59361C25.5693 3.62642 25.4973 3.67469 25.4369 3.7356L10.015 19.3427L9.25817 21.9983ZM28.1917 1.88498L29.1178 2.82269C30.3953 4.11623 30.4069 6.2031 29.1411 7.48352L13.2073 23.6098L7.71817 25.1906C7.38304 25.2844 7.02438 25.2414 6.72091 25.0711C6.41743 24.9008 6.19392 24.617 6.09942 24.2821C6.0291 24.0413 6.02809 23.7855 6.0965 23.5441L7.69338 17.9441L23.5848 1.86019C23.887 1.55592 24.2467 1.31486 24.6431 1.15108C25.0394 0.987292 25.4643 0.904058 25.8932 0.90623C26.322 0.908402 26.7461 0.995936 27.1407 1.16373C27.5354 1.33152 27.8926 1.57766 28.1917 1.88498ZM11.3932 3.56644C12.1165 3.56644 12.7028 4.15998 12.7028 4.89206C12.7039 5.06512 12.6709 5.23671 12.6057 5.39702C12.5405 5.55732 12.4444 5.7032 12.3227 5.82632C12.2011 5.94943 12.0564 6.04737 11.8969 6.11452C11.7374 6.18168 11.5662 6.21673 11.3932 6.21769H6.15484C4.70817 6.21769 3.53567 7.40477 3.53567 8.86748V24.7721C3.53567 26.2362 4.70817 27.4233 6.15484 27.4233H21.8698C23.3165 27.4233 24.4905 26.2362 24.4905 24.7721V19.471C24.4905 18.7389 25.0767 18.1454 25.8 18.1454C26.5234 18.1454 27.1096 18.7389 27.1096 19.4725V24.7721C27.1096 27.7004 24.7632 30.0746 21.8698 30.0746H6.15484C3.2615 30.0746 0.916504 27.7004 0.916504 24.7721V8.86748C0.916504 5.9406 3.2615 3.56644 6.15484 3.56644H11.3932Z" fill="#2A6AB5"/>
</svg>
