<svg width="29" height="31" viewBox="0 0 29 31" fill="none" xmlns="http://www.w3.org/2000/svg">
<path d="M28.4027 21.1167C28.4101 21.4355 28.3128 21.748 28.1256 22.0063C27.9409 22.2696 27.6743 22.4644 27.3673 22.5604L24.8736 23.3917C24.1047 23.6453 23.4057 24.0747 22.8319 24.6459C22.2578 25.2173 21.8279 25.9171 21.5777 26.6875L20.7027 29.1667C20.6116 29.4643 20.4276 29.7249 20.1777 29.9104C19.9118 30.0932 19.5962 30.19 19.2736 30.1875C18.95 30.2013 18.6311 30.1071 18.367 29.9196C18.103 29.7321 17.9088 29.4621 17.8152 29.1521L16.984 26.6584C16.7338 25.8879 16.3039 25.1881 15.7298 24.6167C15.1506 24.0491 14.4536 23.6159 13.6881 23.3479L11.1944 22.5313C10.8996 22.427 10.6412 22.2396 10.4506 21.9917C10.2575 21.7292 10.1505 21.4133 10.1444 21.0875C10.1306 20.764 10.2248 20.445 10.4123 20.181C10.5998 19.9169 10.8698 19.7228 11.1798 19.6292L13.6881 18.7979C14.466 18.5466 15.1731 18.114 15.7512 17.536C16.3293 16.9579 16.7618 16.2508 17.0131 15.4729L17.8444 13.0084C17.9294 12.7051 18.1103 12.4375 18.36 12.2456C18.6097 12.0537 18.9149 11.9478 19.2298 11.9438C19.5433 11.9438 19.8511 12.0298 20.1194 12.1917C20.3848 12.374 20.589 12.6336 20.7027 12.9354L21.5486 15.4729C21.7999 16.2508 22.2324 16.9579 22.8105 17.536C23.3886 18.114 24.0957 18.5466 24.8736 18.7979L27.3527 19.6729C27.6543 19.7718 27.9155 19.9664 28.0965 20.2271C28.294 20.4817 28.4017 20.7945 28.4027 21.1167ZM13.8208 11.8417C13.8186 12.1276 13.7324 12.4065 13.5729 12.6438C13.4006 12.8785 13.1618 13.0563 12.8875 13.1542L11.05 13.7667C10.5352 13.9446 10.0686 14.2334 9.67918 14.6125C9.29777 15.0001 9.00866 15.4686 8.83335 15.9834L8.20626 17.7917C8.11838 18.0712 7.93848 18.3128 7.69585 18.4771C7.4561 18.6445 7.17156 18.736 6.87918 18.7396C6.58025 18.7346 6.29006 18.6379 6.04793 18.4625C5.81856 18.2881 5.64602 18.0495 5.5521 17.7771L4.95418 15.9542C4.77873 15.4438 4.48949 14.98 4.10835 14.5979C3.73406 14.2071 3.26777 13.9163 2.7521 13.7521L0.92918 13.1396C0.646321 13.0506 0.400438 12.8713 0.22918 12.6292C0.113098 12.4474 0.0387927 12.2421 0.0116186 12.0281C-0.0155554 11.8141 0.00507867 11.5968 0.0720339 11.3917C0.138989 11.1867 0.250598 10.999 0.398817 10.8423C0.547037 10.6856 0.728176 10.5637 0.92918 10.4854L2.7521 9.88752C3.2679 9.70742 3.73642 9.41325 4.12275 9.02692C4.50907 8.6406 4.80325 8.17208 4.98335 7.65627L5.58126 5.86252C5.66722 5.59371 5.82933 5.35561 6.04793 5.17711C6.28022 5.00207 6.55955 4.9005 6.85001 4.88544C7.1443 4.87753 7.43408 4.95888 7.68126 5.11877C7.92453 5.28299 8.11259 5.51679 8.22085 5.78961L8.83335 7.65627C9.01345 8.17208 9.30762 8.6406 9.69395 9.02692C10.0803 9.41325 10.5488 9.70742 11.0646 9.88752L12.8875 10.5146C13.1602 10.6083 13.3954 10.7872 13.5583 11.025C13.731 11.2622 13.823 11.5484 13.8208 11.8417ZM22.2631 4.02502C22.2499 4.29092 22.1642 4.54813 22.0152 4.76877C21.8635 4.97673 21.6487 5.13017 21.4027 5.20627L20.4986 5.51252C20.3229 5.57314 20.1634 5.67291 20.032 5.80429C19.9006 5.93567 19.8008 6.09522 19.7402 6.27086L19.4194 7.18961C19.3314 7.41336 19.1854 7.60966 18.9965 7.75836C18.7815 7.93059 18.5136 8.02331 18.2381 8.02086C17.9858 8.00632 17.7408 7.93129 17.5236 7.80211C17.3069 7.64016 17.1442 7.41648 17.0569 7.16044L16.7506 6.25627C16.6967 6.07752 16.596 5.91642 16.459 5.78961C16.3304 5.6547 16.1699 5.55438 15.9923 5.49794L15.0881 5.20627C14.8475 5.11246 14.6362 4.95645 14.4756 4.75419C14.3226 4.53646 14.2411 4.27655 14.2423 4.01044C14.2508 3.74367 14.3369 3.48518 14.4902 3.26669C14.6461 3.06291 14.8594 2.91052 15.1027 2.82919L15.9923 2.53752C16.1717 2.47582 16.3358 2.37636 16.4736 2.24586C16.603 2.10736 16.7024 1.94348 16.7652 1.76461L17.0715 0.860439C17.159 0.634398 17.2975 0.434606 17.4798 0.277106C17.689 0.122686 17.9358 0.027021 18.1944 2.24798e-05C18.4696 -0.00155333 18.7389 0.0797515 18.9673 0.233356C19.1729 0.388013 19.3339 0.594296 19.434 0.831273L19.7402 1.76461C19.8032 1.94343 19.9025 2.10728 20.0319 2.24586C20.1675 2.37181 20.3259 2.4708 20.4986 2.53752L21.4173 2.84377C21.651 2.9357 21.8569 3.0864 22.0152 3.28127C22.1743 3.4968 22.2611 3.75715 22.2631 4.02502Z" fill="#999999"/>
</svg>
