<svg width="22" height="22" viewBox="0 0 22 22" fill="none" xmlns="http://www.w3.org/2000/svg">
<path d="M16.375 8.75C18.7912 8.75 20.75 6.79125 20.75 4.375C20.75 1.95875 18.7912 0 16.375 0C13.9588 0 12 1.95875 12 4.375C12 6.79125 13.9588 8.75 16.375 8.75Z" fill="#999999"/>
<path fill-rule="evenodd" clip-rule="evenodd" d="M15.8973 6.45833H21.1458C21.3392 6.45833 21.5247 6.38151 21.6614 6.24477C21.7982 6.10802 21.875 5.92255 21.875 5.72917C21.875 5.53578 21.7982 5.35031 21.6614 5.21357C21.5247 5.07682 21.3392 5 21.1458 5H15.3723C15.4598 5.52354 15.6421 6.015 15.8973 6.45833ZM12.7298 6.45833C12.584 5.99167 12.4819 5.50312 12.4323 5H0.729167C0.53578 5 0.350313 5.07682 0.213568 5.21357C0.0768228 5.35031 0 5.53578 0 5.72917C0 5.92255 0.0768228 6.10802 0.213568 6.24477C0.350313 6.38151 0.53578 6.45833 0.729167 6.45833H12.7298ZM0.729167 12.2917C0.53578 12.2917 0.350313 12.3685 0.213568 12.5052C0.0768228 12.642 0 12.8274 0 13.0208C0 13.2142 0.0768228 13.3997 0.213568 13.5364C0.350313 13.6732 0.53578 13.75 0.729167 13.75H21.1458C21.3392 13.75 21.5247 13.6732 21.6614 13.5364C21.7982 13.3997 21.875 13.2142 21.875 13.0208C21.875 12.8274 21.7982 12.642 21.6614 12.5052C21.5247 12.3685 21.3392 12.2917 21.1458 12.2917H0.729167ZM0.729167 19.5833C0.53578 19.5833 0.350313 19.6602 0.213568 19.7969C0.0768228 19.9336 0 20.1191 0 20.3125C0 20.5059 0.0768228 20.6914 0.213568 20.8281C0.350313 20.9648 0.53578 21.0417 0.729167 21.0417H21.1458C21.3392 21.0417 21.5247 20.9648 21.6614 20.8281C21.7982 20.6914 21.875 20.5059 21.875 20.3125C21.875 20.1191 21.7982 19.9336 21.6614 19.7969C21.5247 19.6602 21.3392 19.5833 21.1458 19.5833H0.729167Z" fill="#999999"/>
</svg>
