<svg width="23" height="25" viewBox="0 0 23 25" fill="none" xmlns="http://www.w3.org/2000/svg">
<path d="M18.75 25C17.7083 25 16.8229 24.6354 16.0938 23.9062C15.3646 23.1771 15 22.2917 15 21.25C15 21.1042 15.0104 20.9529 15.0312 20.7962C15.0521 20.6396 15.0833 20.4992 15.125 20.375L6.3125 15.25C5.95833 15.5625 5.5625 15.8075 5.125 15.985C4.6875 16.1625 4.22917 16.2508 3.75 16.25C2.70833 16.25 1.82292 15.8854 1.09375 15.1562C0.364583 14.4271 0 13.5417 0 12.5C0 11.4583 0.364583 10.5729 1.09375 9.84375C1.82292 9.11458 2.70833 8.75 3.75 8.75C4.22917 8.75 4.6875 8.83875 5.125 9.01625C5.5625 9.19375 5.95833 9.43833 6.3125 9.75L15.125 4.625C15.0833 4.5 15.0521 4.35958 15.0312 4.20375C15.0104 4.04792 15 3.89667 15 3.75C15 2.70833 15.3646 1.82292 16.0938 1.09375C16.8229 0.364583 17.7083 0 18.75 0C19.7917 0 20.6771 0.364583 21.4062 1.09375C22.1354 1.82292 22.5 2.70833 22.5 3.75C22.5 4.79167 22.1354 5.67708 21.4062 6.40625C20.6771 7.13542 19.7917 7.5 18.75 7.5C18.2708 7.5 17.8125 7.41167 17.375 7.235C16.9375 7.05833 16.5417 6.81333 16.1875 6.5L7.375 11.625C7.41667 11.75 7.44792 11.8908 7.46875 12.0475C7.48958 12.2042 7.5 12.355 7.5 12.5C7.5 12.6458 7.48958 12.7971 7.46875 12.9537C7.44792 13.1104 7.41667 13.2508 7.375 13.375L16.1875 18.5C16.5417 18.1875 16.9375 17.9429 17.375 17.7662C17.8125 17.5896 18.2708 17.5008 18.75 17.5C19.7917 17.5 20.6771 17.8646 21.4062 18.5938C22.1354 19.3229 22.5 20.2083 22.5 21.25C22.5 22.2917 22.1354 23.1771 21.4062 23.9062C20.6771 24.6354 19.7917 25 18.75 25Z" fill="#68B9DA"/>
</svg>
